<?xml version="1.0" encoding="UTF-8" standalone="no"?>
<!DOCTYPE svg PUBLIC "-//W3C//DTD SVG 1.1//EN" "http://www.w3.org/Graphics/SVG/1.1/DTD/svg11.dtd">
<svg width="100%" height="100%" viewBox="0 0 580 195" version="1.1" xmlns="http://www.w3.org/2000/svg" xmlns:xlink="http://www.w3.org/1999/xlink" xml:space="preserve" xmlns:serif="http://www.serif.com/" style="fill-rule:evenodd;clip-rule:evenodd;stroke-linejoin:round;stroke-miterlimit:2;">
    <g transform="matrix(1,0,0,1,-7852.89,-2528.87)">
        <g transform="matrix(1,0,0,1,2597,2177.37)">
            <g transform="matrix(1.62888,0,0,1.82844,4596.41,-289.557)">
                <g transform="matrix(98.8401,0,0,98.8401,402,419)">
                    <path d="M0.708,-0.692L0.55,-0.692L0.029,-0L0.209,-0L0.311,-0.139L0.947,-0.139L1.049,-0L1.229,-0L0.708,-0.692ZM0.851,-0.268L0.407,-0.268L0.629,-0.561L0.851,-0.268Z" style="fill:#ff4521;fill-rule:nonzero;"/>
                </g>
                <g transform="matrix(98.8401,0,0,98.8401,526.341,419)">
                    <path d="M1.005,-0.353C1.086,-0.369 1.133,-0.411 1.133,-0.506C1.133,-0.634 1.039,-0.692 0.866,-0.692L0.091,-0.692L0.091,-0L0.902,-0C1.068,-0 1.168,-0.06 1.168,-0.189C1.168,-0.301 1.098,-0.341 1.005,-0.353ZM0.866,-0.564C0.933,-0.564 0.974,-0.542 0.974,-0.486C0.974,-0.427 0.934,-0.41 0.867,-0.41L0.25,-0.41L0.25,-0.564L0.866,-0.564ZM0.25,-0.287L0.902,-0.287C0.974,-0.287 1.01,-0.262 1.01,-0.208C1.01,-0.15 0.971,-0.128 0.902,-0.128L0.25,-0.128L0.25,-0.287Z" style="fill:#ff4521;fill-rule:nonzero;"/>
                </g>
                <g transform="matrix(98.8401,0,0,98.8401,646.629,419)">
                    <path d="M0.987,-0.233C1.094,-0.271 1.134,-0.352 1.134,-0.447L1.134,-0.448C1.134,-0.585 1.055,-0.692 0.823,-0.692L0.091,-0.692L0.091,-0L0.25,-0L0.25,-0.209L0.831,-0.209L0.97,-0L1.151,-0L0.987,-0.233ZM0.823,-0.55C0.931,-0.55 0.974,-0.515 0.974,-0.448L0.974,-0.447C0.974,-0.38 0.931,-0.345 0.823,-0.345L0.25,-0.345L0.25,-0.55L0.823,-0.55Z" style="fill:#ff4521;fill-rule:nonzero;"/>
                </g>
            </g>
        </g>
        <g transform="matrix(1,0,0,1,2597,2177.37)">
            <g transform="matrix(0.530319,0,0,0.616443,5043.13,287.22)">
                <g transform="matrix(98.8401,0,0,98.8401,402,419)">
                    <path d="M0.098,-0.692L0.098,-0L0.858,-0L0.858,-0.078L0.181,-0.078L0.181,-0.692L0.098,-0.692Z" style="fill:#8e8e8e;fill-rule:nonzero;"/>
                </g>
                <g transform="matrix(98.8401,0,0,98.8401,495.009,419)">
                    <path d="M0.572,-0.692L0.49,-0.692L0.037,-0L0.127,-0L0.241,-0.176L0.822,-0.176L0.936,-0L1.026,-0L0.572,-0.692ZM0.779,-0.245L0.284,-0.245L0.532,-0.619L0.779,-0.245Z" style="fill:#8e8e8e;fill-rule:nonzero;"/>
                </g>
                <g transform="matrix(98.8401,0,0,98.8401,604.919,419)">
                    <path d="M0.908,-0.106L0.181,-0.692L0.098,-0.692L0.098,-0L0.18,-0L0.18,-0.586L0.906,-0L0.99,-0L0.99,-0.692L0.908,-0.692L0.908,-0.106Z" style="fill:#8e8e8e;fill-rule:nonzero;"/>
                </g>
                <g transform="matrix(98.8401,0,0,98.8401,717.3,419)">
                    <path d="M0.098,-0.692L0.098,-0L0.641,-0C0.881,-0 1.015,-0.127 1.015,-0.345L1.015,-0.346C1.015,-0.565 0.881,-0.692 0.641,-0.692L0.098,-0.692ZM0.181,-0.617L0.641,-0.617C0.832,-0.617 0.933,-0.517 0.933,-0.346L0.933,-0.345C0.933,-0.174 0.832,-0.075 0.641,-0.075L0.181,-0.075L0.181,-0.617Z" style="fill:#8e8e8e;fill-rule:nonzero;"/>
                </g>
                <g transform="matrix(98.8401,0,0,98.8401,828.198,419)">
                    <path d="M0.888,-0.545C0.864,-0.641 0.773,-0.698 0.632,-0.698L0.317,-0.698C0.148,-0.698 0.069,-0.623 0.069,-0.516C0.069,-0.426 0.124,-0.354 0.271,-0.336L0.673,-0.301C0.774,-0.287 0.821,-0.253 0.821,-0.181C0.821,-0.107 0.764,-0.064 0.65,-0.064L0.324,-0.064C0.214,-0.064 0.144,-0.108 0.123,-0.199L0.05,-0.161C0.075,-0.054 0.173,0.006 0.323,0.006L0.65,0.006C0.816,0.006 0.898,-0.07 0.898,-0.18C0.898,-0.283 0.84,-0.352 0.689,-0.371L0.292,-0.404C0.187,-0.418 0.146,-0.459 0.146,-0.518C0.146,-0.585 0.202,-0.627 0.314,-0.627L0.631,-0.627C0.739,-0.627 0.805,-0.583 0.823,-0.504L0.888,-0.545Z" style="fill:#8e8e8e;fill-rule:nonzero;"/>
                </g>
                <g transform="matrix(98.8401,0,0,98.8401,927.335,419)">
                    <path d="M0.991,-0.614C0.922,-0.677 0.83,-0.698 0.704,-0.698L0.436,-0.698C0.195,-0.698 0.058,-0.569 0.058,-0.347L0.058,-0.346C0.058,-0.122 0.195,0.006 0.436,0.006L0.704,0.006C0.832,0.006 0.923,-0.015 0.991,-0.078L0.942,-0.137C0.887,-0.086 0.81,-0.069 0.704,-0.069L0.436,-0.069C0.246,-0.069 0.139,-0.169 0.139,-0.346L0.139,-0.347C0.139,-0.522 0.245,-0.623 0.436,-0.623L0.704,-0.623C0.808,-0.623 0.887,-0.606 0.942,-0.555L0.991,-0.614Z" style="fill:#8e8e8e;fill-rule:nonzero;"/>
                </g>
                <g transform="matrix(98.8401,0,0,98.8401,1033.09,419)">
                    <path d="M0.572,-0.692L0.49,-0.692L0.037,-0L0.127,-0L0.241,-0.176L0.822,-0.176L0.936,-0L1.026,-0L0.572,-0.692ZM0.779,-0.245L0.284,-0.245L0.532,-0.619L0.779,-0.245Z" style="fill:#8e8e8e;fill-rule:nonzero;"/>
                </g>
                <g transform="matrix(98.8401,0,0,98.8401,1143,419)">
                    <path d="M0.098,-0.692L0.098,-0L0.179,-0L0.179,-0.197L0.668,-0.197C0.856,-0.197 0.944,-0.292 0.944,-0.444L0.944,-0.445C0.944,-0.596 0.856,-0.692 0.668,-0.692L0.098,-0.692ZM0.862,-0.444C0.862,-0.333 0.801,-0.272 0.668,-0.272L0.179,-0.272L0.179,-0.617L0.668,-0.617C0.801,-0.617 0.862,-0.555 0.862,-0.445L0.862,-0.444Z" style="fill:#8e8e8e;fill-rule:nonzero;"/>
                </g>
                <g transform="matrix(98.8401,0,0,98.8401,1246.39,419)">
                    <rect x="0.098" y="-0.692" width="0.083" height="0.692" style="fill:#8e8e8e;fill-rule:nonzero;"/>
                </g>
                <g transform="matrix(98.8401,0,0,98.8401,1278.81,419)">
                    <path d="M0.908,-0.106L0.181,-0.692L0.098,-0.692L0.098,-0L0.18,-0L0.18,-0.586L0.906,-0L0.99,-0L0.99,-0.692L0.908,-0.692L0.908,-0.106Z" style="fill:#8e8e8e;fill-rule:nonzero;"/>
                </g>
                <g transform="matrix(98.8401,0,0,98.8401,1391.19,419)">
                    <path d="M1.014,-0.614C0.945,-0.677 0.85,-0.698 0.716,-0.698L0.441,-0.698C0.195,-0.698 0.058,-0.568 0.058,-0.347L0.058,-0.346C0.058,-0.123 0.194,0.006 0.433,0.006L0.701,0.006C0.829,0.006 0.935,-0.022 0.975,-0.109L0.981,-0L1.032,-0L1.032,-0.344L0.687,-0.344L0.687,-0.278L0.96,-0.278L0.96,-0.21C0.95,-0.105 0.838,-0.069 0.704,-0.069L0.436,-0.069C0.246,-0.069 0.139,-0.171 0.139,-0.346L0.139,-0.347C0.139,-0.522 0.246,-0.623 0.441,-0.623L0.716,-0.623C0.828,-0.623 0.91,-0.606 0.965,-0.555L1.014,-0.614Z" style="fill:#8e8e8e;fill-rule:nonzero;"/>
                </g>
            </g>
        </g>
    </g>
</svg>
